<svg width="200" height="200" viewBox="0 0 200 200" fill="none" xmlns="http://www.w3.org/2000/svg">
  <path d="M75.5 55.5C75.5 47.7761 81.7761 41.5 89.5 41.5H111.5C119.224 41.5 125.5 47.7761 125.5 55.5V100C125.5 107.724 119.224 114 111.5 114H89.5C81.7761 114 75.5 107.724 75.5 100V55.5Z" fill="#FDE68A" stroke="#F97316" stroke-width="2"/>
  <rect x="84" y="64" width="32" height="4" rx="2" fill="#F97316"/>
  <rect x="84" y="74" width="32" height="4" rx="2" fill="#F97316"/>
  <rect x="84" y="84" width="20" height="4" rx="2" fill="#F97316"/>
  <path d="M44.5 120.5C44.5 112.776 50.7761 106.5 58.5 106.5H80.5C88.2239 106.5 94.5 112.776 94.5 120.5V155C94.5 162.724 88.2239 169 80.5 169H58.5C50.7761 169 44.5 162.724 44.5 155V120.5Z" fill="#FED7AA" stroke="#F97316" stroke-width="2"/>
  <rect x="54" y="121" width="32" height="4" rx="2" fill="#F97316"/>
  <rect x="54" y="131" width="32" height="4" rx="2" fill="#F97316"/>
  <rect x="54" y="141" width="20" height="4" rx="2" fill="#F97316"/>
  <rect x="54" y="151" width="25" height="4" rx="2" fill="#F97316"/>
  <path d="M105.5 120.5C105.5 112.776 111.776 106.5 119.5 106.5H141.5C149.224 106.5 155.5 112.776 155.5 120.5V155C155.5 162.724 149.224 169 141.5 169H119.5C111.776 169 105.5 162.724 105.5 155V120.5Z" fill="#FED7AA" stroke="#F97316" stroke-width="2"/>
  <rect x="115" y="121" width="32" height="4" rx="2" fill="#F97316"/>
  <rect x="115" y="131" width="32" height="4" rx="2" fill="#F97316"/>
  <rect x="115" y="141" width="20" height="4" rx="2" fill="#F97316"/>
  <rect x="115" y="151" width="25" height="4" rx="2" fill="#F97316"/>
  <circle cx="100" cy="31" r="12" fill="#FDBA74" stroke="#F97316" stroke-width="2"/>
  <path d="M100 19C100 19 108 27 108 31C108 35 104 38 100 38C96 38 92 35 92 31C92 27 100 19 100 19Z" fill="#FDE68A" stroke="#F97316" stroke-width="2"/>
  <path d="M86 185.5C84.5 176.5 93 172.5 100 172.5C107 172.5 115.5 176.5 114 185.5" stroke="#F97316" stroke-width="3" stroke-linecap="round"/>
</svg>
