<svg width="25" height="24" viewBox="0 0 25 24" fill="#FDA172" xmlns="http://www.w3.org/2000/svg">
<path fill-rule="evenodd" clip-rule="evenodd" d="M15.9879 2.6253C19.4919 3.92971 22.0671 7.14241 22.4501 11H18.4789C18.3173 7.11917 17.2252 4.39579 15.9936 2.62743L15.9879 2.6253ZM12.4995 2C9.45675 3.44197 8.61076 8.08485 8.47793 11H16.477C16.3381 7.95156 15.4729 3.64755 12.4995 2ZM8.94579 2.64984C7.7206 4.41872 6.63696 7.13553 6.47605 11H2.54883C2.92945 7.16638 5.4751 3.96966 8.94579 2.64984ZM15.9882 21.3747C19.4921 20.0703 22.0673 16.8576 22.4503 13H18.4791C18.3175 16.8808 17.2254 19.6042 15.9938 21.3726L15.9882 21.3747ZM12.4998 22C9.457 20.558 8.61101 15.9152 8.47817 13H16.4772C16.3383 16.0484 15.4731 20.3525 12.4998 22ZM8.94603 21.3502C7.72084 19.5813 6.6372 16.8645 6.47629 13H2.54907C2.9297 16.8336 5.47535 20.0303 8.94603 21.3502Z" fill="#FDA172"/>
</svg>
