<svg width="25" height="24" viewBox="0 0 25 24" fill="none" xmlns="http://www.w3.org/2000/svg">
<path fill-rule="evenodd" clip-rule="evenodd" d="M17.4753 13H21.5V11H17.4753C17.2245 5.94668 15.0927 2 12.5 2C9.90733 2 7.77555 5.94668 7.52469 11H3.5V13H7.52469C7.77555 18.0533 9.90733 22 12.5 22C15.0927 22 17.2245 18.0533 17.4753 13ZM15.4726 13C15.3571 15.094 14.8857 16.8986 14.2467 18.1766C13.4482 19.7737 12.7151 20 12.5 20C12.2849 20 11.5518 19.7737 10.7533 18.1766C10.1143 16.8986 9.64295 15.094 9.52739 13H15.4726ZM9.52739 11C9.64295 8.90602 10.1143 7.10143 10.7533 5.82336C11.5518 4.22632 12.2849 4 12.5 4C12.7151 4 13.4482 4.22632 14.2467 5.82336C14.8857 7.10143 15.3571 8.90602 15.4726 11H9.52739Z" fill="#6B7280"/>
<path fill-rule="evenodd" clip-rule="evenodd" d="M12.5 20C16.9183 20 20.5 16.4183 20.5 12C20.5 7.58172 16.9183 4 12.5 4C8.08172 4 4.5 7.58172 4.5 12C4.5 16.4183 8.08172 20 12.5 20ZM12.5 22C18.0228 22 22.5 17.5228 22.5 12C22.5 6.47715 18.0228 2 12.5 2C6.97715 2 2.5 6.47715 2.5 12C2.5 17.5228 6.97715 22 12.5 22Z" fill="#6B7280"/>
</svg>
